<svg width="24" height="24" viewBox="0 0 24 24" fill="none" xmlns="http://www.w3.org/2000/svg">
<path d="M23.9995 12.0044C23.9995 5.37717 18.627 0.00463867 11.9998 0.00463867C5.37253 0.00463867 0 5.37717 0 12.0044C0 17.6318 3.87448 22.354 9.1011 23.6509V15.6715H6.62675V12.0044H9.1011V10.4243C9.1011 6.34003 10.9495 4.44695 14.9594 4.44695C15.7197 4.44695 17.0315 4.59623 17.5681 4.74502V8.06896C17.2849 8.0392 16.7929 8.02432 16.1819 8.02432C14.2144 8.02432 13.4541 8.76974 13.4541 10.7075V12.0044H17.3737L16.7003 15.6715H13.4541V23.9163C19.3959 23.1987 24 18.1396 24 12.0044H23.9995Z" fill="#0866FF"/>
<path d="M16.6998 15.6716L17.3732 12.0045H13.4536V10.7075C13.4536 8.76981 14.2139 8.02439 16.1814 8.02439C16.7924 8.02439 17.2844 8.03927 17.5676 8.06903V4.7451C17.031 4.59582 15.7192 4.44702 14.9589 4.44702C10.949 4.44702 9.10057 6.3401 9.10057 10.4243V12.0045H6.62622V15.6716H9.10057V23.651C10.0289 23.8814 10.9999 24.0042 11.9992 24.0042C12.4912 24.0042 12.9765 23.974 13.4531 23.9164V15.6716H16.6993H16.6998Z" fill="white"/>
</svg>
