<svg width="24" height="24" viewBox="0 0 24 24" fill="none" xmlns="http://www.w3.org/2000/svg">
<path d="M12 24.0046C18.6274 24.0046 24 18.6321 24 12.0046C24 5.37722 18.6274 0.00463867 12 0.00463867C5.37258 0.00463867 0 5.37722 0 12.0046C0 18.6321 5.37258 24.0046 12 24.0046Z" fill="#C640CD"/>
<path d="M4.59296 14.9716L8.11796 9.37961C8.25057 9.16907 8.42538 8.98831 8.63137 8.84875C8.83735 8.70918 9.07004 8.61384 9.31473 8.56873C9.55942 8.52363 9.81081 8.52974 10.053 8.58669C10.2952 8.64364 10.523 8.75019 10.722 8.89961L13.527 11.0026C13.6522 11.0964 13.8045 11.1468 13.961 11.1462C14.1174 11.1457 14.2694 11.0942 14.394 10.9996L18.18 8.12561C18.684 7.74161 19.344 8.34761 19.008 8.88461L15.48 14.4736C15.3474 14.6841 15.1725 14.8649 14.9666 15.0045C14.7606 15.144 14.5279 15.2394 14.2832 15.2845C14.0385 15.3296 13.7871 15.3235 13.5449 15.2665C13.3027 15.2096 13.0749 15.103 12.876 14.9536L10.071 12.8506C9.94574 12.7569 9.79339 12.7064 9.63696 12.707C9.48053 12.7075 9.32853 12.759 9.20396 12.8536L5.41796 15.7276C4.91396 16.1116 4.25396 15.5086 4.59296 14.9716Z" fill="white"/>
</svg>
