<svg width="24" height="24" viewBox="0 0 24 24" fill="none" xmlns="http://www.w3.org/2000/svg">
<path d="M12 24.0046C18.6274 24.0046 24 18.6321 24 12.0046C24 5.37722 18.6274 0.00463867 12 0.00463867C5.37258 0.00463867 0 5.37722 0 12.0046C0 18.6321 5.37258 24.0046 12 24.0046Z" fill="url(#paint0_linear_33_751)"/>
<path fill-rule="evenodd" clip-rule="evenodd" d="M5.43189 11.8778C8.93014 10.3537 11.2628 9.34891 12.43 8.86345C15.7626 7.47733 16.455 7.23655 16.9064 7.2286C17.0056 7.22685 17.2276 7.25145 17.3714 7.36812C17.4928 7.46662 17.5262 7.59969 17.5422 7.69309C17.5581 7.78649 17.578 7.99925 17.5622 8.16549C17.3816 10.063 16.6002 14.6677 16.2027 16.7929C16.0345 17.6921 15.7032 17.9936 15.3826 18.0231C14.6857 18.0873 14.1566 17.5626 13.4816 17.1202C12.4255 16.4279 11.8288 15.9969 10.8036 15.3213C9.61884 14.5406 10.3869 14.1114 11.0621 13.4102C11.2388 13.2266 14.3092 10.4339 14.3686 10.1805C14.376 10.1488 14.3829 10.0307 14.3128 9.96836C14.2426 9.906 14.139 9.92732 14.0643 9.94428C13.9584 9.96833 12.2712 11.0835 9.00264 13.2899C8.52373 13.6187 8.08994 13.7789 7.70129 13.7705C7.27283 13.7613 6.44864 13.5283 5.83594 13.3291C5.08444 13.0848 4.48716 12.9557 4.53917 12.5408C4.56626 12.3247 4.86383 12.1037 5.43189 11.8778Z" fill="white"/>
<defs>
<linearGradient id="paint0_linear_33_751" x1="12" y1="0.00463867" x2="12" y2="23.8266" gradientUnits="userSpaceOnUse">
<stop stop-color="#2AABEE"/>
<stop offset="1" stop-color="#229ED9"/>
</linearGradient>
</defs>
</svg>
