<svg width="24" height="24" viewBox="0 0 24 24" fill="none" xmlns="http://www.w3.org/2000/svg">
<path d="M21.2909 2.34556C20.6621 1.79525 18.1208 0.0456352 12.4601 0.0218653C12.4601 0.0218653 5.78483 -0.359894 2.53072 2.47089C0.719299 4.18917 0.0820728 6.70338 0.0148564 9.82048C-0.05236 12.9376 -0.139324 18.7792 5.79812 20.3632H5.80382L5.80002 22.7801C5.80002 22.7801 5.76205 23.7587 6.44143 23.9582C7.26321 24.2002 7.7455 23.4565 8.53007 22.6548C8.96071 22.2147 9.55541 21.5682 10.0035 21.0741C14.0642 21.3982 17.1873 20.6574 17.542 20.5479C18.3619 20.2958 23.0013 19.7322 23.7559 13.8909C24.5348 7.87027 23.3792 4.06203 21.2909 2.34556ZM21.979 13.4591C21.3422 18.3362 17.5792 18.6427 16.8854 18.8538C16.5903 18.9438 13.8474 19.591 10.3981 19.3774C10.3981 19.3774 7.82791 22.3181 7.02511 23.0827C6.89979 23.2022 6.75245 23.2505 6.65409 23.2267C6.51586 23.1947 6.47788 23.0394 6.4794 22.8125C6.48168 22.4884 6.50143 18.7962 6.50143 18.7962C1.47881 17.4737 1.7716 12.5018 1.82856 9.89827C1.88552 7.29474 2.40123 5.16193 3.93315 3.72745C6.68561 1.36307 12.3557 1.71637 12.3557 1.71637C17.144 1.73618 19.4385 3.10367 19.9705 3.56178C21.7371 4.99626 22.6372 8.42886 21.979 13.4576V13.4591Z" fill="#7360F2"/>
<path fill-rule="evenodd" clip-rule="evenodd" d="M12.3777 7.7839C12.3913 7.50809 12.626 7.29557 12.9018 7.30922C13.5863 7.34308 14.1819 7.54059 14.6153 7.96562C15.0501 8.39194 15.2542 8.9808 15.2896 9.65851C15.304 9.93428 15.0922 10.1695 14.8164 10.1839C14.5406 10.1984 14.3054 9.98651 14.291 9.71075C14.2641 9.1978 14.1182 8.87866 13.9152 8.67963C13.7109 8.47933 13.3811 8.33415 12.8524 8.30799C12.5766 8.29435 12.3641 8.0597 12.3777 7.7839Z" fill="#7360F2"/>
<path fill-rule="evenodd" clip-rule="evenodd" d="M11.8927 6.1446C11.9118 5.86912 12.1506 5.6613 12.4261 5.68042C13.7988 5.77569 14.9255 6.22232 15.7531 7.07904L15.7533 7.07922C16.5714 7.92706 16.9608 8.98624 16.9327 10.2182C16.9264 10.4943 16.6975 10.713 16.4214 10.7067C16.1454 10.7004 15.9267 10.4714 15.933 10.1954C15.9555 9.2088 15.652 8.41441 15.0337 7.77362C14.4182 7.13654 13.5475 6.76065 12.3569 6.67802C12.0814 6.6589 11.8736 6.42008 11.8927 6.1446Z" fill="#7360F2"/>
<path fill-rule="evenodd" clip-rule="evenodd" d="M11.327 4.6007C11.3289 4.32457 11.5542 4.10219 11.8303 4.10402C13.7236 4.11652 15.3364 4.71532 16.6343 5.91517C17.9514 7.13287 18.5979 8.79042 18.6142 10.8263C18.6164 11.1024 18.3944 11.3281 18.1182 11.3303C17.8421 11.3325 17.6165 11.1104 17.6142 10.8343C17.5997 9.02038 17.0333 7.64595 15.9554 6.64944C14.8582 5.63509 13.4926 5.11502 11.8237 5.10399C11.5476 5.10217 11.3252 4.87684 11.327 4.6007Z" fill="#7360F2"/>
<path d="M12.9405 13.7508C12.9405 13.7508 13.3905 13.7868 13.6328 13.5038L14.1052 12.9401C14.333 12.6607 14.8829 12.4824 15.4214 12.7669C15.8249 12.9852 16.2167 13.2224 16.5952 13.4778C16.9526 13.7271 17.6844 14.3062 17.6866 14.3062C18.0352 14.5853 18.1158 14.9952 17.8784 15.4273C17.8784 15.4299 17.8765 15.4342 17.8765 15.4363C17.6151 15.8661 17.2832 16.2537 16.8933 16.5845C16.8888 16.5867 16.8888 16.5888 16.8846 16.591C16.5459 16.8594 16.2131 17.012 15.8862 17.0487C15.8381 17.0567 15.7892 17.0596 15.7404 17.0574C15.5963 17.0587 15.4529 17.0378 15.3158 16.9954L15.3052 16.9807C14.8016 16.846 13.9609 16.5089 12.5607 15.7763C11.7505 15.3574 10.9791 14.8741 10.2549 14.3318C9.89184 14.06 9.54557 13.7688 9.21775 13.4595L9.18281 13.4263L9.14787 13.3932L9.11294 13.3597C9.10116 13.3489 9.08977 13.3377 9.078 13.3266C8.75183 13.0157 8.44473 12.6873 8.15824 12.343C7.5864 11.6562 7.07685 10.9248 6.63504 10.1565C5.86263 8.82829 5.50718 8.03164 5.36515 7.55336L5.34958 7.54328C5.30506 7.41329 5.28313 7.2773 5.28464 7.14063C5.28198 7.09436 5.28491 7.04796 5.29337 7.00233C5.33413 6.69308 5.49528 6.37735 5.7768 6.05513C5.77908 6.05117 5.78136 6.05117 5.78364 6.04685C6.13236 5.67709 6.54105 5.36245 6.99429 5.11478C6.99657 5.11478 7.00113 5.11262 7.00378 5.11262C7.45949 4.88753 7.89165 4.96388 8.18558 5.2927C8.18786 5.29486 8.79736 5.98887 9.05901 6.32777C9.32835 6.6871 9.57854 7.059 9.80865 7.44207C10.1087 7.95241 9.92067 8.47499 9.62598 8.69036L9.03167 9.13838C8.73166 9.36816 8.77116 9.79494 8.77116 9.79494C8.77116 9.79494 9.65143 12.9545 12.9405 13.7508Z" fill="#7360F2"/>
</svg>
