<svg width="24" height="24" viewBox="0 0 24 24" fill="none" xmlns="http://www.w3.org/2000/svg">
<path d="M0 24.0046L1.69505 17.8416C0.649083 16.0376 0.0994725 13.9926 0.100477 11.8956C0.103492 5.33964 5.46395 0.00463867 12.0502 0.00463867C15.2464 0.00563867 18.2467 1.24464 20.5034 3.49264C22.7591 5.74064 24.001 8.72864 24 11.9066C23.997 18.4636 18.6365 23.7986 12.0502 23.7986C10.0507 23.7976 8.08038 23.2986 6.33509 22.3506L0 24.0046ZM6.62848 20.1976C8.31248 21.1926 9.92012 21.7886 12.0462 21.7896C17.5202 21.7896 21.9794 17.3556 21.9824 11.9046C21.9844 6.44264 17.5463 2.01464 12.0543 2.01264C6.57624 2.01264 2.12007 6.44664 2.11806 11.8966C2.11706 14.1216 2.77217 15.7876 3.87239 17.5306L2.86863 21.1786L6.62848 20.1976ZM18.0698 14.7336C17.9955 14.6096 17.7965 14.5356 17.4971 14.3866C17.1987 14.2376 15.7307 13.5186 15.4564 13.4196C15.1831 13.3206 14.9842 13.2706 14.7842 13.5686C14.5853 13.8656 14.0126 14.5356 13.8387 14.7336C13.6649 14.9316 13.4901 14.9566 13.1917 14.8076C12.8932 14.6586 11.9307 14.3456 10.7903 13.3326C9.90304 12.5446 9.30319 11.5716 9.12936 11.2736C8.95554 10.9766 9.11128 10.8156 9.25998 10.6676C9.39462 10.5346 9.5584 10.3206 9.70811 10.1466C9.85983 9.97464 9.90907 9.85064 10.0095 9.65164C10.109 9.45364 10.0598 9.27964 9.98442 9.13064C9.90907 8.98264 9.31223 7.51964 9.06405 6.92464C8.8209 6.34564 8.57473 6.42364 8.39186 6.41464L7.81914 6.40464C7.62019 6.40464 7.29666 6.47864 7.02336 6.77664C6.75006 7.07464 5.9784 7.79264 5.9784 9.25564C5.9784 10.7186 7.04848 12.1316 7.19719 12.3296C7.3469 12.5276 9.30218 15.5296 12.2974 16.8166C13.0098 17.1226 13.5664 17.3056 13.9995 17.4426C14.7149 17.6686 15.366 17.6366 15.8804 17.5606C16.4542 17.4756 17.6468 16.8416 17.896 16.1476C18.1452 15.4526 18.1452 14.8576 18.0698 14.7336Z" fill="#25D366"/>
</svg>
