<svg width="42" height="42" viewBox="0 0 42 42" fill="none" xmlns="http://www.w3.org/2000/svg">
<path d="M21 42C32.598 42 42 32.598 42 21C42 9.40204 32.598 0 21 0C9.40203 0 0 9.40204 0 21C0 32.598 9.40203 42 21 42Z" fill="#E11491"/>
<path d="M21.2926 35.8413C21.1945 35.8413 21.0963 35.8413 20.9975 35.8408C18.6745 35.8465 16.528 35.7875 14.4405 35.6604C12.5267 35.544 10.7798 34.8826 9.38831 33.748C8.04568 32.6532 7.12879 31.1728 6.66323 29.3485C6.25803 27.7604 6.23656 26.2013 6.21595 24.6934C6.20102 23.6114 6.18568 22.3294 6.1825 21.0256C6.18568 19.7165 6.20102 18.4344 6.21595 17.3525C6.23656 15.8447 6.25803 14.2857 6.66323 12.6973C7.12879 10.873 8.04568 9.39266 9.38831 8.29783C10.7798 7.16324 12.5267 6.50185 14.4408 6.38539C16.5282 6.25856 18.6751 6.19929 21.0032 6.20496C23.327 6.19998 25.4727 6.25856 27.5602 6.38539C29.474 6.50185 31.2209 7.16324 32.6124 8.29783C33.9553 9.39266 34.872 10.873 35.3375 12.6973C35.7427 14.2854 35.7642 15.8447 35.7847 17.3525C35.7997 18.4344 35.8153 19.7165 35.8182 21.0202V21.0256C35.8153 22.3294 35.7997 23.6114 35.7847 24.6934C35.7642 26.2011 35.7429 27.7601 35.3375 29.3485C34.872 31.1728 33.9553 32.6532 32.6124 33.748C31.2209 34.8826 29.474 35.544 27.5602 35.6604C25.5611 35.7821 23.5076 35.8413 21.2926 35.8413ZM20.9975 33.5255C23.2828 33.5309 25.3812 33.4733 27.4196 33.3493C28.8667 33.2614 30.1214 32.7917 31.1492 31.9536C32.0993 31.1787 32.7537 30.1096 33.094 28.776C33.4314 27.454 33.4508 26.0344 33.4696 24.6617C33.4843 23.587 33.4997 22.314 33.5028 21.0229C33.4997 19.7316 33.4843 18.4588 33.4696 17.3841C33.4508 16.0114 33.4314 14.5918 33.094 13.2696C32.7537 11.936 32.0993 10.8669 31.1492 10.092C30.1213 9.25408 28.8667 8.78441 27.4196 8.69648C25.3812 8.57232 23.2828 8.51513 21.0029 8.52011C18.7181 8.51466 16.6196 8.57232 14.5812 8.69648C13.1341 8.78441 11.8794 9.25408 10.8515 10.092C9.90134 10.8669 9.24696 11.936 8.90665 13.2696C8.5693 14.5918 8.54985 16.0112 8.5311 17.3841C8.5164 18.4597 8.50106 19.7334 8.49787 21.0256C8.50106 22.3122 8.5164 23.5861 8.5311 24.6617C8.54985 26.0344 8.5693 27.454 8.90665 28.776C9.24696 30.1096 9.90134 31.1787 10.8515 31.9536C11.8794 32.7915 13.1341 33.2612 14.5812 33.3491C16.6196 33.4733 18.7185 33.5311 20.9975 33.5255ZM20.9423 28.2585C16.9528 28.2585 13.7068 25.0126 13.7068 21.0229C13.7068 17.0332 16.9528 13.7874 20.9423 13.7874C24.9321 13.7874 28.1779 17.0332 28.1779 21.0229C28.1779 25.0126 24.9321 28.2585 20.9423 28.2585ZM20.9423 16.1027C18.2295 16.1027 16.0222 18.31 16.0222 21.0229C16.0222 23.7358 18.2295 25.9431 20.9423 25.9431C23.6554 25.9431 25.8625 23.7358 25.8625 21.0229C25.8625 18.31 23.6554 16.1027 20.9423 16.1027ZM28.9883 11.472C28.0294 11.472 27.2517 12.2494 27.2517 13.2085C27.2517 14.1677 28.0294 14.945 28.9883 14.945C29.9475 14.945 30.7248 14.1677 30.7248 13.2085C30.7248 12.2494 29.9475 11.472 28.9883 11.472Z" fill="white"/>
</svg>
