<svg width="43" height="42" viewBox="0 0 43 42" fill="none" xmlns="http://www.w3.org/2000/svg">
<path d="M21.9272 42C33.5252 42 42.9272 32.598 42.9272 21C42.9272 9.40204 33.5252 0 21.9272 0C10.3293 0 0.927246 9.40204 0.927246 21C0.927246 32.598 10.3293 42 21.9272 42Z" fill="#0082ED"/>
<path d="M26.6303 11.1255H29.3359V6.41326C28.8692 6.34907 27.2638 6.20459 25.3942 6.20459C21.4933 6.20459 18.821 8.65825 18.821 13.168V17.3184H14.5162V22.5863H18.821V35.8414H24.0988V22.5876H28.2295L28.8852 17.3196H24.0976V13.6904C24.0988 12.1678 24.5088 11.1255 26.6303 11.1255Z" fill="white"/>
</svg>
