<svg width="43" height="42" viewBox="0 0 43 42" fill="none" xmlns="http://www.w3.org/2000/svg">
<path d="M21.4636 42C33.0616 42 42.4636 32.598 42.4636 21C42.4636 9.40204 33.0616 0 21.4636 0C9.86565 0 0.463623 9.40204 0.463623 21C0.463623 32.598 9.86565 42 21.4636 42Z" fill="#CD0013"/>
<path d="M21.8666 6.20459C13.7424 6.20581 9.42407 11.4108 9.42407 17.0862C9.42407 19.7178 10.8948 23.0013 13.2497 24.0422C13.9215 24.3448 13.8326 23.9756 14.4105 21.7651C14.4561 21.5812 14.4327 21.4219 14.2845 21.2502C10.9182 17.3567 13.6276 9.35229 21.3862 9.35229C32.6149 9.35229 30.5169 24.8894 23.3398 24.8894C21.49 24.8894 20.1119 23.4372 20.5478 21.6404C21.0763 19.5004 22.1111 17.1998 22.1111 15.6575C22.1111 11.7701 16.3196 12.3468 16.3196 17.4974C16.3196 19.0892 16.8827 20.1635 16.8827 20.1635C16.8827 20.1635 15.0192 27.6913 14.6735 29.0978C14.0882 31.4786 14.7525 35.3327 14.8106 35.6648C14.8464 35.8476 15.0514 35.9056 15.1662 35.755C15.3502 35.5142 17.6026 32.301 18.2336 29.9782C18.4633 29.1324 19.4055 25.6994 19.4055 25.6994C20.0267 26.8207 21.8172 27.7592 23.7251 27.7592C29.4005 27.7592 33.5028 22.7704 33.5028 16.58C33.483 10.6452 28.404 6.20459 21.8666 6.20459Z" fill="white"/>
</svg>
