<svg width="43" height="42" viewBox="0 0 43 42" fill="none" xmlns="http://www.w3.org/2000/svg">
<path d="M21.3909 42C32.9889 42 42.3909 32.598 42.3909 21C42.3909 9.40204 32.9889 0 21.3909 0C9.79289 0 0.390869 9.40204 0.390869 21C0.390869 32.598 9.79289 42 21.3909 42Z" fill="#F70000"/>
<path d="M25.9531 19.6935L19.4056 16.111C19.0292 15.9051 18.5842 15.9127 18.2152 16.1314C17.8459 16.3503 17.6257 16.7369 17.6257 17.1661V24.2695C17.6257 24.6967 17.8446 25.0826 18.2113 25.3017C18.4028 25.4161 18.6152 25.4736 18.8279 25.4736C19.0228 25.4736 19.2182 25.4254 19.398 25.3286L25.9456 21.8079C26.3343 21.5987 26.577 21.1947 26.5788 20.7531C26.5803 20.3115 26.3407 19.9056 25.9531 19.6935ZM19.3624 23.3759V18.0669L24.2559 20.7445L19.3624 23.3759Z" fill="white"/>
<path d="M35.9915 15.0942L35.9902 15.0807C35.965 14.8421 35.7152 12.7202 34.6837 11.6411C33.4914 10.3716 32.1397 10.2174 31.4896 10.1435C31.4359 10.1374 31.3866 10.1318 31.3424 10.1259L31.2907 10.1205C27.3727 9.83558 21.4555 9.79668 21.3963 9.79645L21.3911 9.79622L21.3859 9.79645C21.3267 9.79668 15.4096 9.83558 11.4563 10.1205L11.4041 10.1259C11.362 10.1315 11.3156 10.1368 11.2652 10.1426C10.6226 10.2168 9.28539 10.3712 8.08973 11.6865C7.10726 12.7542 6.82328 14.8305 6.7941 15.0639L6.79075 15.0942C6.78189 15.1935 6.57275 17.5565 6.57275 19.9289V22.1466C6.57275 24.5189 6.78189 26.882 6.79075 26.9815L6.79231 26.9964C6.81743 27.2311 7.06703 29.314 8.09378 30.3937C9.21483 31.6206 10.6324 31.7829 11.3948 31.8702C11.5153 31.884 11.6191 31.8958 11.6899 31.9082L11.7584 31.9177C14.0206 32.1329 21.1134 32.239 21.4142 32.2433L21.4232 32.2435L21.4323 32.2433C21.4915 32.2431 27.4084 32.2042 31.3264 31.9193L31.3782 31.9138C31.4277 31.9073 31.4833 31.9014 31.5444 31.8951C32.1834 31.8273 33.5133 31.6864 34.6925 30.3889C35.675 29.321 35.9592 27.2447 35.9881 27.0116L35.9915 26.9813C36.0003 26.8818 36.2097 24.5189 36.2097 22.1466V19.9289C36.2095 17.5565 36.0003 15.1937 35.9915 15.0942ZM34.4727 22.1466C34.4727 24.3423 34.281 26.6036 34.2629 26.8112C34.1892 27.3831 33.8896 28.6967 33.4109 29.217C32.6729 30.029 31.9147 30.1095 31.3613 30.1681C31.2943 30.1751 31.2323 30.1818 31.1763 30.1888C27.3867 30.4629 21.693 30.5049 21.4307 30.5066C21.1365 30.5022 14.1475 30.3953 11.9542 30.1916C11.8418 30.1733 11.7204 30.1593 11.5924 30.1448C10.9433 30.0704 10.0546 29.9686 9.37129 29.217L9.35526 29.1999C8.88495 28.7099 8.59396 27.4814 8.51999 26.818C8.50621 26.6611 8.30952 24.3731 8.30952 22.1466V19.9289C8.30952 17.7356 8.50077 15.4768 8.51935 15.2649C8.60728 14.5914 8.91256 13.3572 9.37129 12.8584C10.132 12.0218 10.9339 11.9291 11.4644 11.8678C11.515 11.8619 11.5623 11.8566 11.606 11.8509C15.4507 11.5755 21.1853 11.5345 21.3911 11.533C21.5969 11.5343 27.3294 11.5755 31.1401 11.8509C31.1869 11.8568 31.238 11.8626 31.293 11.8689C31.8386 11.9312 32.6632 12.0252 33.42 12.8324L33.427 12.8399C33.8973 13.3299 34.1883 14.5798 34.2623 15.2566C34.2753 15.4046 34.4727 17.6976 34.4727 19.9289V22.1466Z" fill="white"/>
</svg>
