<svg width="42" height="42" viewBox="0 0 42 42" fill="none" xmlns="http://www.w3.org/2000/svg">
<path d="M42 20.9981C42 32.595 32.5981 41.9961 21.0001 41.9961C9.40192 41.9961 0 32.595 0 20.9981C0 9.40105 9.40192 7.62939e-06 21.0001 7.62939e-06C32.5981 7.62939e-06 42 9.40105 42 20.9981Z" fill="#3C80AD"/>
<path d="M14.1347 10.8065C8.83552 10.8402 4.54492 15.1604 4.54492 20.478C4.54492 25.8164 8.86884 30.1486 14.1965 30.1486C16.6959 30.1486 18.9751 29.1942 20.6902 27.6288L20.6898 27.6283H20.6911C21.0429 27.308 21.3705 26.9609 21.6715 26.5926H19.6947C19.4301 26.2733 19.1902 25.9396 18.9746 25.5958H22.3846C22.5928 25.2639 22.7797 24.9187 22.9473 24.5611H18.4124C18.2574 24.2287 18.1231 23.8905 18.0086 23.5452H23.3507C23.6733 22.5811 23.8473 21.5492 23.8473 20.478C23.8473 19.7664 23.7702 19.074 23.6253 18.4063H17.7252C17.7991 18.0625 17.8909 17.7233 18.0003 17.3909H23.3446C23.2255 17.036 23.0867 16.6909 22.9288 16.3553H18.4115C18.5744 16.006 18.7591 15.6676 18.9654 15.3395H22.3731C22.146 14.9768 21.8949 14.6306 21.624 14.3043H19.7242C20.0182 13.9573 20.3413 13.631 20.6916 13.3283C18.9773 11.7623 16.6977 10.807 14.197 10.807C14.1754 10.8065 14.155 10.8065 14.1347 10.8065Z" fill="#931B1D"/>
<path d="M36.7937 20.4808C36.7945 25.8215 32.4763 30.1518 27.1444 30.1537C21.8151 30.155 17.4931 25.8266 17.4917 20.485V20.4808C17.4899 15.1388 21.8101 10.8079 27.1401 10.8065C32.4703 10.8046 36.7927 15.1337 36.7937 20.4757V20.4808Z" fill="#F16622"/>
<path d="M36.7937 20.588C36.7945 25.9287 32.4763 30.26 27.1444 30.2609C21.8151 30.2628 17.4931 25.9333 17.4917 20.5926V20.588C17.4899 15.2469 21.8101 10.9156 27.1401 10.9142C32.4703 10.9123 36.7927 15.2413 36.7937 20.5829V20.588Z" fill="#F7981D"/>
<path d="M14.1347 10.9164C8.83552 10.9505 4.54492 15.2698 4.54492 20.5878C4.54492 25.9266 8.86884 30.259 14.1965 30.259C16.6959 30.259 18.9751 29.3035 20.6902 27.7385L20.6898 27.7377H20.6911C21.0429 27.4174 21.3705 27.0717 21.6715 26.702H19.6947C19.4301 26.3836 19.1902 26.0503 18.9746 25.7065H22.3846C22.5928 25.3742 22.7797 25.0281 22.9473 24.6708H18.4124C18.2574 24.3381 18.1231 23.9998 18.0086 23.6555H23.3507C23.6733 22.6905 23.8473 21.659 23.8473 20.5878C23.8473 19.8766 23.7702 19.1839 23.6253 18.5166H17.7252C17.7991 18.1731 17.8909 17.8331 18.0003 17.5007H23.3446C23.2255 17.1458 23.0867 16.8006 22.9288 16.4646H18.4115C18.5744 16.1171 18.7591 15.777 18.9654 15.4493H22.3731C22.146 15.087 21.8949 14.7414 21.624 14.4137H19.7242C20.0182 14.067 20.3413 13.7403 20.6916 13.437C18.9773 11.8716 16.6977 10.9164 14.197 10.9164H14.1347Z" fill="#CB2026"/>
<path d="M17.6671 23.0503L17.7958 22.1752C17.7257 22.1752 17.6223 22.2047 17.5309 22.2047C17.1732 22.2047 17.1335 22.0145 17.157 21.8738L17.4456 20.0871H17.9892L18.1203 19.1187H17.608L17.7127 18.5172H16.6849C16.6628 18.5394 16.0779 21.9038 16.0779 22.3127C16.0779 22.9191 16.4171 23.1892 16.8967 23.185C17.2711 23.1818 17.5641 23.0779 17.6671 23.0503Z" fill="white"/>
<path d="M17.9929 21.3814C17.9929 22.8366 18.9507 23.1828 19.7677 23.1828C20.5214 23.1828 20.8527 23.0134 20.8527 23.0134L21.0342 22.0202C21.0342 22.0202 20.4609 22.2744 19.943 22.2744C18.8399 22.2744 19.0333 21.4497 19.0333 21.4497H21.1219C21.1219 21.4497 21.2562 20.7818 21.2562 20.51C21.2562 19.8318 20.9183 19.0047 19.7907 19.0047C18.7573 19.0052 17.9929 20.1204 17.9929 21.3814ZM19.7948 19.9265C20.3747 19.9265 20.2675 20.5797 20.2675 20.6327H19.127C19.1265 20.5653 19.2345 19.9265 19.7948 19.9265Z" fill="white"/>
<path d="M26.3016 23.0506L26.4857 21.9266C26.4857 21.9266 25.9813 22.1814 25.6355 22.1814C24.9067 22.1814 24.6145 21.622 24.6145 21.0238C24.6145 19.8076 25.2418 19.1383 25.9402 19.1383C26.4636 19.1383 26.884 19.4337 26.884 19.4337L27.0516 18.3436C27.0516 18.3436 26.4285 18.0901 25.8944 18.0901C24.7082 18.0901 23.5535 19.1204 23.5535 21.0589C23.5535 22.3421 24.177 23.1913 25.4034 23.1913C25.75 23.1913 26.3016 23.0506 26.3016 23.0506Z" fill="white"/>
<path d="M12.0155 19.021C11.3107 19.021 10.7706 19.2471 10.7706 19.2471L10.6216 20.1347C10.6216 20.1347 11.0679 19.9538 11.7413 19.9538C12.1244 19.9538 12.4037 19.9962 12.4037 20.3083C12.4037 20.4975 12.3695 20.5672 12.3695 20.5672C12.3695 20.5672 12.0681 20.5418 11.9282 20.5418C11.0398 20.5418 10.106 20.9217 10.106 22.0686C10.106 22.971 10.718 23.1787 11.0979 23.1787C11.823 23.1787 12.135 22.7074 12.1521 22.7056L12.1184 23.0993H13.0231L13.4269 20.2626C13.4269 19.0592 12.3792 19.021 12.0155 19.021ZM12.2361 21.3292C12.2555 21.5028 12.1272 22.3151 11.5086 22.3151C11.1892 22.3151 11.1062 22.0705 11.1062 21.926C11.1062 21.6444 11.259 21.3057 12.0122 21.3057C12.1872 21.3057 12.2061 21.3251 12.2361 21.3292Z" fill="white"/>
<path d="M14.3885 23.1571C14.6194 23.1571 15.9426 23.2166 15.9426 21.8481C15.9426 20.5692 14.718 20.8212 14.718 20.3075C14.718 20.0522 14.9175 19.9709 15.2821 19.9709C15.427 19.9709 15.9846 20.0176 15.9846 20.0176L16.1148 19.1079C16.1148 19.1079 15.7538 19.0276 15.1666 19.0276C14.4061 19.0276 13.6349 19.3303 13.6349 20.3711C13.6349 21.5513 14.9216 21.4322 14.9216 21.9289C14.9216 22.2603 14.5616 22.2876 14.2847 22.2876C13.8056 22.2876 13.3744 22.1227 13.3722 22.1306L13.2356 23.0302C13.2591 23.0385 13.5259 23.1571 14.3885 23.1571Z" fill="white"/>
<path d="M34.8132 18.2048L34.5921 19.583C34.5921 19.583 34.2053 19.0486 33.6002 19.0486C32.6582 19.0486 31.8735 20.1859 31.8735 21.4929C31.8735 22.3372 32.2917 23.1629 33.1479 23.1629C33.7636 23.1629 34.1043 22.7331 34.1043 22.7331L34.0595 23.1001H35.0587L35.8443 18.2029L34.8132 18.2048ZM34.3364 20.8934C34.3364 21.4367 34.0673 22.1627 33.5103 22.1627C33.1406 22.1627 32.9675 21.8516 32.9675 21.3632C32.9675 20.5656 33.3251 20.0377 33.7761 20.0377C34.1462 20.0377 34.3364 20.2929 34.3364 20.8934Z" fill="white"/>
<path d="M6.45075 23.1041L7.07711 19.407L7.16845 23.1041H7.87646L9.19747 19.407L8.61223 23.1041H9.66361L10.4745 18.2015H8.84761L7.83451 21.209L7.78181 18.2015H6.28273L5.46069 23.1041H6.45075Z" fill="white"/>
<path d="M22.2834 23.1108C22.5825 21.4068 22.6379 20.0226 23.3524 20.2749C23.4774 19.6154 23.5975 19.3606 23.7336 19.0809C23.7336 19.0809 23.6699 19.0676 23.5352 19.0676C23.0759 19.0676 22.7348 19.6976 22.7348 19.6976L22.8258 19.1192H21.8685L21.2283 23.1108H22.2834Z" fill="white"/>
<path d="M28.6724 19.021C27.9676 19.021 27.4281 19.2471 27.4281 19.2471L27.2794 20.1347C27.2794 20.1347 27.7249 19.9538 28.3987 19.9538C28.7809 19.9538 29.0615 19.9962 29.0615 20.3083C29.0615 20.4975 29.0269 20.5672 29.0269 20.5672C29.0269 20.5672 28.7254 20.5418 28.5842 20.5418C27.6958 20.5418 26.7629 20.9217 26.7629 22.0686C26.7629 22.971 27.3755 23.1787 27.7549 23.1787C28.4799 23.1787 28.792 22.7074 28.8085 22.7056L28.7753 23.0993H29.6804L30.0838 20.2626C30.0843 19.0592 29.037 19.021 28.6724 19.021ZM28.893 21.3292C28.9128 21.5028 28.785 22.3151 28.1651 22.3151C27.8467 22.3151 27.7641 22.0705 27.7641 21.926C27.7641 21.6444 27.9169 21.3057 28.6692 21.3057C28.8445 21.3057 28.863 21.3251 28.893 21.3292Z" fill="white"/>
<path d="M30.91 23.1108C31.2097 21.4068 31.2651 20.0226 31.9795 20.2749C32.1042 19.6154 32.2247 19.3606 32.3613 19.0809C32.3613 19.0809 32.2966 19.0676 32.1628 19.0676C31.7022 19.0676 31.362 19.6976 31.362 19.6976L31.4533 19.1192H30.4961L29.8555 23.1108H30.9105H30.91Z" fill="white"/>
</svg>
