<svg width="42" height="42" viewBox="0 0 42 42" fill="none" xmlns="http://www.w3.org/2000/svg">
<path d="M21 42.0057C32.598 42.0057 42 32.6044 42 21.0075C42 9.41058 32.598 0.00927734 21 0.00927734C9.40202 0.00927734 0 9.41058 0 21.0075C0 32.6044 9.40202 42.0057 21 42.0057Z" fill="#21B52B"/>
<path d="M15.3388 24.1777C15.3017 24.1506 15.2603 24.1306 15.2161 24.1134C14.8649 23.9793 14.3526 23.6239 14.0671 23.4398C13.8459 23.297 13.8802 23.1843 13.9101 23.1372C13.9158 23.13 13.9229 23.1216 13.9287 23.1144L13.9301 23.113C14.4154 22.5178 14.6966 21.67 14.6966 20.5995C14.6966 18.707 13.8873 17.1728 11.6907 17.1728C9.66977 17.1728 8.69922 18.707 8.69922 20.5995C8.69922 22.4921 9.35149 24.112 11.6907 24.112C12.166 24.112 12.6028 24.0207 12.9867 23.8437H12.9881C13.1009 23.7952 13.2107 23.7966 13.362 23.9065C14.4468 24.71 14.9848 25.0055 15.3702 25.0055C15.5558 25.0055 15.5229 24.4346 15.5229 24.4346C15.5229 24.4346 15.4958 24.2904 15.3388 24.1777ZM40.0388 20.5782L35.8284 17.0514C35.7969 17.0257 35.7513 17.0271 35.7227 17.0571L35.1005 17.7051L38.5387 20.5782L35.1005 23.4512L35.7227 24.0992C35.7513 24.1292 35.7969 24.1306 35.8284 24.1049L40.0388 20.5782ZM37.013 20.5496L32.8026 17.0228C32.7712 16.9972 32.7255 16.9986 32.697 17.0286L32.0747 17.6766L35.513 20.5496L32.0747 23.4227L32.697 24.0707C32.7255 24.1006 32.7712 24.102 32.8026 24.0763L37.013 20.5496ZM30.3078 17.2812C30.2478 17.2583 29.901 17.2612 29.901 17.2612C29.6684 17.2669 29.52 17.2612 29.4158 17.4054C29.4 17.4268 29.3886 17.4496 29.3772 17.4725L27.9885 20.4768L26.5584 17.4739C26.547 17.4511 26.5355 17.4282 26.5198 17.4069C26.4157 17.2626 26.2673 17.2669 26.0346 17.2626C26.0346 17.2626 25.6878 17.2598 25.6279 17.2826C25.4851 17.3368 25.5793 17.5124 25.6464 17.6565L27.4004 21.1562C27.4804 21.316 27.5218 21.4916 27.5218 21.67V23.7823C27.5218 23.925 27.6374 24.0407 27.7802 24.0407H28.1469C28.2896 24.0407 28.4053 23.925 28.4053 23.7823V21.68C28.4053 21.5016 28.4466 21.326 28.5266 21.1662L30.2878 17.6551C30.3563 17.511 30.4505 17.3354 30.3078 17.2812ZM23.7567 17.6195C23.6925 17.4311 23.6083 17.2712 23.427 17.2641H22.9731C22.9603 17.2626 22.946 17.2612 22.9318 17.2612H22.7862C22.7719 17.2612 22.7576 17.2626 22.7448 17.2641C22.5935 17.2869 22.5179 17.4382 22.4608 17.6152L20.22 23.8765C20.22 23.9593 20.2871 24.0264 20.3699 24.0264H20.838C21.0236 24.0264 21.1192 23.8737 21.1748 23.6895L21.6215 22.3851C21.653 22.2951 21.7372 22.2352 21.8328 22.2352H24.3247C24.419 22.2352 24.5032 22.2951 24.5345 22.3836L24.9999 23.7024C25.0569 23.8865 25.1569 24.0392 25.3509 24.0392H25.8405C25.9276 24.0392 25.9975 23.9722 25.9975 23.8894L23.7567 17.6195ZM19.525 17.6309C19.2294 17.4311 18.8213 17.2898 18.0405 17.2898H16.5291C16.3493 17.2898 16.2023 17.4353 16.2023 17.6166V23.691C16.2023 23.8765 16.3522 24.0278 16.5391 24.0278H16.7989C16.9844 24.0278 17.1357 23.878 17.1357 23.691V21.4088H18.4973C18.63 21.4088 20.3341 21.1419 20.3341 19.2865C20.3327 18.4787 19.9189 17.8992 19.525 17.6309ZM7.11498 17.2569H6.58407C6.47271 17.2569 6.38421 17.3468 6.38421 17.4568V23.8152C6.38421 23.9307 6.47842 24.0264 6.5955 24.0264H7.1064C7.22205 24.0264 7.3177 23.9322 7.3177 23.8152V17.4582C7.31627 17.3468 7.22634 17.2569 7.11498 17.2569ZM5.21531 23.22H2.84466V17.4582C2.84466 17.3468 2.75473 17.2583 2.64489 17.2583H2.16104C2.04968 17.2583 1.96118 17.3483 1.96118 17.4582V23.7481C1.96118 23.8794 2.06683 23.985 2.1981 23.985H5.21674C5.33096 23.985 5.42223 23.8937 5.42223 23.7794V23.4255C5.42089 23.3127 5.3281 23.22 5.21531 23.22ZM9.65834 20.6138V20.5995C9.6612 19.3151 10.1293 17.9521 11.6936 17.9521C13.4662 17.9521 13.7375 19.3151 13.7389 20.5995V20.6138C13.7389 22.1424 13.2436 23.3042 11.6936 23.3042C9.91384 23.3042 9.65834 21.9027 9.65834 20.6138ZM24.2205 21.4944H21.8097L23.0745 17.9521L24.2205 21.4944ZM18.1876 20.7095H17.1343V17.9891H17.885C18.4003 17.9891 18.67 18.0819 18.8655 18.2146C19.1267 18.3916 19.3993 18.7741 19.3993 19.3079C19.4007 20.5339 18.276 20.7095 18.1876 20.7095Z" fill="white"/>
</svg>
