<svg width="42" height="42" viewBox="0 0 42 42" fill="none" xmlns="http://www.w3.org/2000/svg">
<path d="M21 42C32.598 42 42 32.5987 42 21.0019C42 9.40503 32.598 0.00378418 21 0.00378418C9.40202 0.00378418 0 9.40503 0 21.0019C0 32.5987 9.40202 42 21 42Z" fill="#E71600"/>
<path d="M23.7095 27.7177C23.4264 27.7177 23.196 27.9488 23.196 28.2311C23.196 28.5162 23.4264 28.7453 23.7095 28.7453C23.9922 28.7453 24.2222 28.5162 24.2222 28.2311C24.2222 27.9488 23.9922 27.7177 23.7095 27.7177ZM5.92047 28.2057C5.92047 28.2057 6.17618 27.3487 6.21546 27.2145C6.31897 26.8655 6.47363 26.3165 6.47363 26.3165H6.4994C6.4994 26.3165 6.64178 26.8856 6.73466 27.2096C6.77148 27.3352 7.01574 28.2057 7.01574 28.2057H5.92047ZM7.47929 29.7624H8.406L7.00633 25.4852C6.85904 25.4353 6.67492 25.4046 6.48099 25.4046C6.26865 25.4046 6.19295 25.4324 6.02643 25.4852L4.54248 29.7624H5.42991C5.42991 29.7624 5.54897 29.388 5.69462 28.9225H7.22931C7.3676 29.3876 7.47929 29.7624 7.47929 29.7624ZM37.4571 29.7624C37.4571 29.7624 37.018 28.8259 36.9104 28.614C36.7897 28.3739 36.6776 28.2082 36.4301 28.1493V28.1354C36.5962 28.1039 36.728 28.0032 36.8708 27.6972C37.0082 27.3982 37.0491 27.3339 37.1293 27.2636C37.2083 27.192 37.3163 27.219 37.3163 27.219L37.3568 26.6622C37.2414 26.6471 37.1142 26.6467 36.9824 26.6536C36.7656 26.6675 36.6519 26.7289 36.5455 26.8377C36.462 26.9203 36.4043 27.0439 36.334 27.1887C36.2583 27.3434 36.1989 27.4685 36.1233 27.6256C36.0459 27.7868 36.0083 27.8592 35.8 27.8592H35.665V26.7027H34.8574V29.7624H35.665V28.5122L35.7747 28.5105C36.0042 28.5105 36.0435 28.5674 36.1654 28.8096C36.309 29.0992 36.5803 29.7624 36.5803 29.7624H37.4571ZM34.1557 29.7624V26.7027H33.3509V27.8596H32.4406V26.7027H31.6374V29.7624H32.4406V28.513H33.3509V29.7624H34.1557ZM12.0519 26.6749L12.0486 29.6012C12.4299 29.7624 12.8489 29.8352 13.2208 29.8352C14.0751 29.8352 14.5321 29.3938 14.5321 28.666C14.5321 28.0077 14.1274 27.6003 13.3713 27.6003C13.1794 27.6003 13.0665 27.6256 12.8558 27.6764V26.6749H12.0519ZM13.7003 28.7032C13.7003 29.0051 13.5939 29.2121 13.2077 29.2121C13.0776 29.2121 13.0244 29.2121 12.8554 29.1647V28.2822C13.0649 28.2413 13.0833 28.2348 13.2077 28.2348C13.5767 28.2348 13.7003 28.414 13.7003 28.7032ZM31.216 29.4686C31.0029 29.1459 30.9476 28.9556 30.9476 28.5494V27.7255C30.9476 27.2799 30.8969 27.1167 30.7791 26.9535C30.6154 26.7244 30.3437 26.6254 29.8413 26.6254C29.487 26.6254 29.1396 26.6638 28.8074 26.7485L28.9265 27.3389C29.1519 27.3074 29.3888 27.2799 29.5586 27.2799C30.0901 27.2799 30.1514 27.3577 30.1514 27.7565V27.9059C30.0336 27.8744 29.9006 27.851 29.7456 27.851C28.9416 27.851 28.5181 28.2434 28.5181 28.8906C28.5181 29.4989 28.9702 29.8315 29.5242 29.8315C29.7304 29.8315 29.9448 29.7931 30.1146 29.7243C30.2173 29.6793 30.2623 29.6535 30.3945 29.5664C30.4751 29.6842 30.6359 29.8033 30.7013 29.8241L31.216 29.4686ZM30.1936 29.116C30.0172 29.1769 29.9006 29.1917 29.7607 29.1917C29.4727 29.1917 29.3102 29.0775 29.3102 28.783C29.3102 28.4757 29.5164 28.3718 29.9149 28.3718C30.0119 28.3718 30.1077 28.3862 30.1514 28.4021V28.6222C30.1514 28.8595 30.1641 29.0149 30.1936 29.116ZM22.3426 29.4686C22.1306 29.1459 22.0754 28.9556 22.0754 28.5494V27.7255C22.0754 27.2799 22.0238 27.1167 21.9056 26.9535C21.7428 26.7244 21.4707 26.6254 20.9687 26.6254C20.6152 26.6254 20.2666 26.6638 19.934 26.7485L20.053 27.3389C20.2793 27.3074 20.5149 27.2799 20.6851 27.2799C21.2178 27.2799 21.2796 27.3577 21.2796 27.7565V27.9059C21.161 27.8744 21.0276 27.851 20.8725 27.851C20.0686 27.851 19.6447 28.2434 19.6447 28.8906C19.6447 29.4989 20.0972 29.8315 20.6516 29.8315C20.8574 29.8315 21.0726 29.7931 21.2424 29.7243C21.3447 29.6793 21.3893 29.6535 21.5218 29.5664C21.6028 29.6842 21.7624 29.8033 21.8279 29.8241L22.3426 29.4686ZM21.3205 29.116C21.1438 29.1769 21.0276 29.1917 20.8881 29.1917C20.6004 29.1917 20.4368 29.0775 20.4368 28.783C20.4368 28.4757 20.6434 28.3718 21.0415 28.3718C21.1376 28.3718 21.2342 28.3862 21.2796 28.4021V28.6222C21.2796 28.8595 21.2911 29.0149 21.3205 29.116ZM11.4144 29.7624V26.814C10.973 26.6827 10.633 26.6254 10.1899 26.6254C9.74716 26.6254 9.41576 26.6827 8.9743 26.814V28.3236C8.9743 28.7339 8.96734 28.8574 8.92234 28.99C8.87815 29.1066 8.81841 29.2457 8.65639 29.3537L8.87528 29.8241C9.52132 29.6421 9.76435 29.3615 9.76435 28.4684V27.3577C9.97751 27.3266 10.0201 27.3192 10.1899 27.3192C10.3613 27.3192 10.3969 27.3266 10.6092 27.3577V29.7624H11.4144ZM17.5 30.7647V29.6654C17.6018 29.7255 17.8052 29.8147 18.1476 29.8147C18.8289 29.8147 19.3309 29.2485 19.3309 28.2143C19.3309 27.1004 18.8321 26.6233 18.0122 26.6233C17.804 26.6233 17.6685 26.6446 17.5 26.7252V25.4116H16.6989V26.7252C16.5307 26.6446 16.3941 26.6233 16.1862 26.6233C15.3667 26.6233 14.868 27.12 14.868 28.2336C14.868 29.2682 15.3188 29.8147 16.05 29.8147C16.3941 29.8147 16.597 29.7255 16.6989 29.6654V30.7647H17.5ZM15.6936 28.2336C15.6936 27.6191 15.879 27.2947 16.248 27.2947C16.4039 27.2947 16.507 27.2934 16.6989 27.3851V29.0747C16.5246 29.1319 16.4419 29.1401 16.2865 29.1401C15.8663 29.1401 15.6936 28.7969 15.6936 28.2336ZM18.5052 28.2143C18.5052 28.7768 18.2806 29.1401 17.912 29.1401C17.7573 29.1401 17.6751 29.1319 17.5 29.0747V27.3851C17.6923 27.2934 17.7958 27.2947 17.9508 27.2947C18.3203 27.2947 18.5052 27.5999 18.5052 28.2143ZM28.2113 28.434C28.2113 27.676 27.767 27.1539 26.8341 27.1539C26.6046 27.1539 26.445 27.1756 26.1975 27.2341L26.1959 26.1426C26.3493 26.121 26.6132 26.1017 26.9033 26.1017C27.1774 26.1017 27.5247 26.1169 27.83 26.1541L27.8512 25.5216C27.5047 25.4439 27.0019 25.3964 26.6115 25.3964C26.227 25.3964 25.6292 25.493 25.3448 25.5699L25.3444 29.6028C25.7884 29.7656 26.2212 29.8401 26.666 29.8401C27.6831 29.8401 28.2113 29.3005 28.2113 28.434ZM27.3558 28.495C27.3558 28.9037 27.1291 29.1733 26.7126 29.1733C26.5481 29.1733 26.4123 29.1737 26.1975 29.1148V27.8776C26.2924 27.8621 26.4888 27.8314 26.7126 27.8396C27.1365 27.8555 27.3558 28.0531 27.3558 28.495ZM21.1503 11.0988L19.947 14.7116H22.3733L21.1655 11.0988H21.1503ZM16.9329 20.7188C16.858 20.7188 16.7979 20.7806 16.7979 20.8571V22.3932C16.7979 22.4697 16.858 22.5315 16.9329 22.5315H25.3829C25.4569 22.5315 25.5163 22.4697 25.5163 22.3932V20.8571C25.5163 20.7806 25.4569 20.7188 25.3829 20.7188H16.9329ZM21.1577 8.95102C22.0828 8.95102 22.3733 9.61335 22.6159 10.2765C22.719 10.5567 25.121 17.1334 25.1931 17.331C25.2131 17.3854 25.2 17.4759 25.1149 17.5086C25.0298 17.5409 23.7815 18.0265 23.7128 18.0523C23.6436 18.078 23.5663 18.0396 23.5405 17.9713C23.5152 17.903 22.9976 16.4691 22.9391 16.3087H19.3804C19.3223 16.4691 18.7994 17.9054 18.7753 17.9713C18.7511 18.0367 18.6763 18.0813 18.6034 18.0523C18.5302 18.0228 17.2766 17.5376 17.2025 17.5086C17.1305 17.4812 17.0978 17.3998 17.1232 17.331C17.2115 17.0839 19.5768 10.6128 19.6979 10.2765C19.9319 9.62399 20.2334 8.95102 21.1577 8.95102Z" fill="white"/>
</svg>
