<svg width="42" height="42" viewBox="0 0 42 42" fill="none" xmlns="http://www.w3.org/2000/svg">
<path d="M21 42C32.598 42 42 32.5987 42 21.0019C42 9.40508 32.598 0.00382996 21 0.00382996C9.40202 0.00382996 0 9.40508 0 21.0019C0 32.5987 9.40202 42 21 42Z" fill="#FBD800"/>
<path d="M3.60742 17.2178H4.83149L5.12212 19.3871H5.13135L5.45191 17.2178H6.86632L7.18689 19.3871H7.19612L7.48843 17.2178H8.71126L7.96512 20.6683H6.48419L6.16373 18.4317H6.15405L5.83439 20.6683H4.35312L3.60742 17.2178Z" fill="black"/>
<path d="M9.54834 17.2178H12.1715V18.116H10.8577V18.484H12.0717V19.3827H10.8577V19.7692H12.215V20.6683H9.54834V17.2178Z" fill="black"/>
<path d="M15.0106 18.1967C15.0058 17.9813 14.8867 17.91 14.7091 17.91C14.4897 17.91 14.3943 18.0055 14.3943 18.1114C14.3943 18.235 14.4755 18.2878 14.6185 18.3304C14.8819 18.4064 15.3637 18.5032 15.7133 18.6513C16.1482 18.8325 16.3389 19.1429 16.3389 19.5589C16.3389 20.4052 15.6504 20.7583 14.6757 20.7583C13.8446 20.7583 13.0796 20.5002 13.0796 19.6015H14.3894C14.3894 19.6978 14.4083 19.7937 14.4611 19.8648C14.5126 19.9321 14.5996 19.9739 14.728 19.9739C14.9294 19.9739 15.0581 19.8459 15.0581 19.6925C15.0581 19.5637 14.958 19.4964 14.8286 19.459L13.8583 19.1719C13.3276 19.0141 13.1421 18.694 13.1421 18.2499C13.1421 17.5328 13.7198 17.127 14.728 17.127C15.5884 17.127 16.2335 17.3943 16.2335 18.1971H15.0106" fill="black"/>
<path d="M17.9692 18.1441H17.1184V17.2178H20.1865V18.1441H19.3366V20.6683H17.9692V18.1441Z" fill="black"/>
<path d="M21.113 17.2178H23.7379V18.116H22.4238V18.484H23.6373V19.3827H22.4238V19.7692H23.7806V20.6683H21.113V17.2178Z" fill="black"/>
<path d="M24.7942 17.2178H26.8352C27.5756 17.2178 28.0101 17.4424 28.0101 18.0919C28.0101 18.4893 27.8434 18.7896 27.3263 18.9144V18.9237C27.6614 18.9523 27.8434 19.1008 27.9107 19.3638C27.9868 19.6601 27.9776 20.1473 28.1349 20.6688H26.796C26.7152 20.4102 26.6726 19.9745 26.6251 19.6791C26.5956 19.5076 26.5098 19.4394 26.29 19.4394H26.1326V20.6688H24.7946V17.2178M26.247 18.6564C26.509 18.6564 26.7007 18.5654 26.7007 18.3073C26.7007 18.0536 26.5235 18.0013 26.2565 18.0013H26.1322V18.6564H26.247Z" fill="black"/>
<path d="M29.085 17.2178H30.7241L31.4553 19.3063H31.465V17.2178H32.5738V20.6683H30.9352L30.204 18.5654H30.1943V20.6683H29.085V17.2178Z" fill="black"/>
<path d="M16.3112 23.6361C16.3112 24.468 15.7133 24.8834 14.6717 24.8834C13.63 24.8834 13.0325 24.468 13.0325 23.6361V21.3423H14.3995V23.5793C14.3995 23.851 14.5287 23.9562 14.6717 23.9562C14.8154 23.9562 14.9443 23.851 14.9443 23.5793V21.3423H16.3112V23.6361Z" fill="black"/>
<path d="M17.4434 21.3423H19.0829L19.8136 23.4308H19.8233V21.3423H20.9322V24.7925H19.2926L18.561 22.6899H18.5526V24.7925H17.4434V21.3423Z" fill="black"/>
<path d="M22.0886 21.3434L23.4543 21.3435V24.794H22.0886V21.3434Z" fill="black"/>
<path d="M26.2706 21.2519C27.4609 21.2519 28.0527 21.9923 28.0527 23.0677C28.0527 24.1427 27.4609 24.8836 26.2706 24.8836C25.08 24.8836 24.4878 24.1427 24.4878 23.0677C24.4873 21.9923 25.0795 21.2519 26.2706 21.2519ZM26.2706 23.9854C26.4804 23.9854 26.6382 23.8657 26.6382 23.0677C26.6382 22.2883 26.4896 22.1497 26.2706 22.1497C26.0503 22.1497 25.9022 22.2883 25.9022 23.0677C25.9022 23.8657 26.0605 23.9854 26.2706 23.9854Z" fill="black"/>
<path d="M29.085 21.3423H30.7241L31.4553 23.4308H31.465V21.3423H32.5738V24.7925H30.9352L30.204 22.6899H30.1943V24.7925H29.085V21.3423Z" fill="black"/>
<path d="M33.5676 17.149L34.0042 17.1492V24.8057H33.5676V17.149Z" fill="black"/>
<path d="M36.6599 17.2223L37.0961 17.2224V24.8007H36.6599V17.2223Z" fill="black"/>
<path d="M37.4734 17.6314C37.4734 17.3786 37.6796 17.1724 37.9338 17.1724C38.1878 17.1724 38.3928 17.3786 38.3928 17.6314C38.3928 17.8863 38.1878 18.0917 37.9338 18.0917C37.6796 18.0917 37.4734 17.8863 37.4734 17.6314ZM38.3202 17.6314C38.3202 17.4075 38.158 17.2335 37.9338 17.2335C37.7103 17.2335 37.5463 17.4075 37.5463 17.6314C37.5463 17.8569 37.7103 18.0319 37.9338 18.0319C38.158 18.0319 38.3202 17.8569 38.3202 17.6314ZM38.1633 17.8886H38.0881L37.9412 17.6512H37.826V17.8886H37.7636V17.375H37.9869C38.1236 17.375 38.1698 17.4261 38.1698 17.5108C38.1698 17.6111 38.099 17.6489 38.0085 17.6512L38.1633 17.8886ZM37.9218 17.6019C37.9953 17.6019 38.1021 17.6137 38.1021 17.51C38.1021 17.4296 38.0362 17.4199 37.9733 17.4199H37.8256V17.6019H37.9218Z" fill="black"/>
</svg>
