<svg width="42" height="42" viewBox="0 0 42 42" fill="none" xmlns="http://www.w3.org/2000/svg">
<path d="M42 20.9997C42 32.5966 32.5981 41.9978 20.9999 41.9978C9.40192 41.9978 0 32.5966 0 20.9997C0 9.40274 9.40192 0.00170135 20.9999 0.00170135C32.5981 0.00170135 42 9.40274 42 20.9997Z" fill="white"/>
<path d="M15.5503 25.0288L17.157 15.5401H19.7588L18.1517 25.0288H15.5503Z" fill="#293688"/>
<path d="M27.4139 15.7853C26.8982 15.593 26.09 15.387 25.0815 15.387C22.5103 15.387 20.6991 16.6744 20.6839 18.5187C20.6696 19.8817 21.9767 20.6424 22.9639 21.0966C23.9766 21.5608 24.3173 21.8586 24.3122 22.2736C24.3062 22.9095 23.5031 23.2003 22.7553 23.2003C21.714 23.1998 21.1607 23.0564 20.3058 22.7019L19.9707 22.5509L19.6052 24.675C20.213 24.9399 21.3374 25.1697 22.5043 25.1813C25.2385 25.1809 27.0146 23.9092 27.0345 21.9394C27.0446 20.8603 26.3513 20.0387 24.8498 19.3615C23.9406 18.923 23.3835 18.63 23.3895 18.185C23.3895 17.7908 23.8612 17.369 24.8794 17.369C25.7306 17.356 26.3467 17.5402 26.8272 17.7327L27.0602 17.8421L27.4139 15.7853Z" fill="#293688"/>
<path d="M31.8496 15.5401C31.226 15.5401 30.7755 15.7303 30.5018 16.3478L26.646 25.0293H29.4005L29.9359 23.5749H33.2273L33.5329 25.0293H35.9819L33.8394 15.5401H31.8496ZM30.6671 21.6765C30.8821 21.1301 31.7032 19.0245 31.7032 19.0245C31.6884 19.0493 31.917 18.4751 32.0485 18.1188L32.2244 18.9367C32.2244 18.9367 32.7223 21.2015 32.8267 21.6765H30.6671Z" fill="#293688"/>
<path d="M10.8059 22.0444L10.5765 20.7437C10.1015 19.227 8.6282 17.5867 6.97681 16.7647L9.27536 25.0288H12.0304L16.1623 15.5401H13.4081L10.8059 22.0444Z" fill="#293688"/>
<path d="M4.14819 15.5401V15.6933C7.41281 16.4785 9.6791 18.4632 10.5764 20.7437L9.6329 16.3497C9.47551 15.7492 8.99827 15.5609 8.43382 15.5401H4.14819Z" fill="#F7981D"/>
<path d="M20.9987 41.9981C29.104 41.9981 36.1323 37.4041 39.6327 30.6803H2.36499C5.86593 37.4041 12.8937 41.9981 20.9987 41.9981Z" fill="#F7981D"/>
<path d="M20.9988 0C13.0221 0 6.08389 4.44674 2.52896 10.997H39.4689C35.9135 4.44721 28.9753 0 20.9988 0Z" fill="#293688"/>
</svg>
