<svg width="42" height="42" viewBox="0 0 42 42" fill="none" xmlns="http://www.w3.org/2000/svg">
<path d="M21 42.0057C32.598 42.0057 42 32.6044 42 21.0075C42 9.41058 32.598 0.00927734 21 0.00927734C9.40202 0.00927734 0 9.41058 0 21.0075C0 32.6044 9.40202 42.0057 21 42.0057Z" fill="#21B52B"/>
<path d="M10.9618 29.4803H11.1609C11.3175 29.4803 11.4275 29.4532 11.4909 29.3988C11.5542 29.3444 11.5859 29.2748 11.5859 29.1898C11.5859 29.1073 11.5584 29.0374 11.5034 28.98C11.4484 28.9226 11.345 28.8939 11.1931 28.8939H10.9618V29.4803ZM10.1458 28.3595H11.4962C11.7905 28.3595 12.0106 28.4295 12.1571 28.5693C12.3036 28.7092 12.3769 28.9083 12.3769 29.1665C12.3769 29.432 12.297 29.6395 12.1374 29.7889C11.9778 29.9383 11.7342 30.0131 11.4066 30.0131H10.9618V30.9887H10.1458V28.3595Z" fill="white"/>
<path d="M12.7605 29.0838H13.4437V29.3958C13.5095 29.2608 13.5774 29.1678 13.6473 29.1169C13.7174 29.0662 13.8037 29.0407 13.9066 29.0407C14.014 29.0407 14.1319 29.0742 14.2597 29.1411L14.0339 29.6613C13.9477 29.6254 13.8795 29.6075 13.8294 29.6075C13.7336 29.6075 13.6596 29.6469 13.6071 29.7258C13.5316 29.837 13.4941 30.0451 13.4941 30.3499V30.9885H12.7605V29.0838Z" fill="white"/>
<path d="M14.4106 29.084H15.1406V30.9887H14.4106V29.084ZM14.4106 28.3595H15.1406V28.8562H14.4106V28.3595Z" fill="white"/>
<path d="M15.3916 29.084H16.1511L16.5206 30.291L16.904 29.084H17.6406L16.8312 30.9887H16.1837L15.3916 29.084Z" fill="white"/>
<path d="M19.1493 30.0846C19.0489 30.1204 18.9441 30.1521 18.8353 30.1796C18.6871 30.219 18.5933 30.258 18.5538 30.2962C18.5132 30.3357 18.4929 30.3804 18.4929 30.4306C18.4929 30.488 18.5129 30.535 18.553 30.5714C18.593 30.6079 18.6519 30.6261 18.7295 30.6261C18.8108 30.6261 18.8865 30.6064 18.9564 30.5669C19.0265 30.5275 19.076 30.4794 19.1054 30.4226C19.1346 30.3658 19.1493 30.292 19.1493 30.2011V30.0846ZM18.5161 29.7007L17.8186 29.6273C17.8448 29.5053 17.8828 29.4093 17.9324 29.3393C17.982 29.2693 18.0534 29.2087 18.1467 29.1572C18.2136 29.1202 18.3058 29.0916 18.4229 29.0712C18.5401 29.0509 18.6668 29.0407 18.8032 29.0407C19.0219 29.0407 19.1977 29.053 19.3304 29.0775C19.4631 29.102 19.5737 29.1531 19.6622 29.2309C19.7243 29.2846 19.7734 29.3609 19.8092 29.4595C19.8452 29.5582 19.8631 29.6523 19.8631 29.7419V30.5831C19.8631 30.6728 19.8687 30.7431 19.8801 30.7939C19.8915 30.8447 19.9163 30.9095 19.9545 30.9885H19.2694C19.2419 30.9395 19.224 30.9021 19.2157 30.8763C19.2072 30.8507 19.1988 30.8103 19.1905 30.7553C19.0948 30.8474 18.9997 30.913 18.9053 30.9526C18.7763 31.0052 18.6262 31.0315 18.4552 31.0315C18.228 31.0315 18.0556 30.9789 17.9377 30.8736C17.8199 30.7685 17.761 30.6387 17.761 30.4845C17.761 30.3398 17.8036 30.2208 17.8884 30.1275C17.9734 30.0344 18.1299 29.965 18.3584 29.9195C18.6321 29.8646 18.8096 29.826 18.8909 29.8038C18.9722 29.7817 19.0584 29.7527 19.1493 29.7169C19.1493 29.6273 19.1307 29.5643 19.0937 29.5285C19.0566 29.4927 18.9914 29.4747 18.8982 29.4747C18.7785 29.4747 18.6889 29.494 18.6291 29.5322C18.5825 29.5621 18.5449 29.6182 18.5161 29.7007Z" fill="white"/>
<path d="M21.1185 28.3595V29.084H21.5202V29.6185H21.1185V30.2933C21.1185 30.3745 21.1262 30.4281 21.1418 30.4543C21.1656 30.4949 21.2075 30.5152 21.2673 30.5152C21.3211 30.5152 21.3965 30.4998 21.4933 30.4686L21.5472 30.9725C21.3665 31.012 21.1979 31.0318 21.0414 31.0318C20.8596 31.0318 20.7257 31.0085 20.6396 30.9619C20.5535 30.9153 20.4899 30.8445 20.4485 30.7496C20.4074 30.6546 20.3867 30.501 20.3867 30.2884V29.6185H20.1177V29.084H20.3867V28.7343L21.1185 28.3595Z" fill="white"/>
<path d="M22.738 30.4238H23.1523C23.2922 30.4238 23.3909 30.399 23.4482 30.3493C23.5056 30.2998 23.5344 30.233 23.5344 30.1493C23.5344 30.0716 23.5059 30.0092 23.4491 29.9619C23.3923 29.9147 23.2929 29.8911 23.1505 29.8911H22.738V30.4238ZM22.738 29.3907H23.0913C23.218 29.3907 23.3062 29.3689 23.3559 29.3252C23.4054 29.2815 23.4303 29.2185 23.4303 29.136C23.4303 29.0595 23.4054 28.9997 23.3559 28.9566C23.3062 28.9137 23.2199 28.8922 23.0967 28.8922H22.738V29.3907ZM21.9185 28.3595H23.4393C23.6927 28.3595 23.8873 28.4221 24.023 28.5478C24.1587 28.6732 24.2266 28.8287 24.2266 29.0141C24.2266 29.1695 24.1781 29.3028 24.0814 29.414C24.0167 29.4882 23.9224 29.5467 23.798 29.5897C23.9869 29.6353 24.1259 29.7133 24.215 29.8238C24.304 29.9345 24.3486 30.0734 24.3486 30.2408C24.3486 30.3771 24.3168 30.4998 24.2536 30.6085C24.1902 30.7173 24.1034 30.8033 23.9935 30.8667C23.9253 30.9062 23.8225 30.9349 23.685 30.9528C23.502 30.9767 23.3806 30.9887 23.3209 30.9887H21.9185V28.3595Z" fill="white"/>
<path d="M26.0235 30.0846C25.9231 30.1204 25.8184 30.1521 25.7095 30.1796C25.5613 30.219 25.4675 30.258 25.4281 30.2962C25.3874 30.3357 25.3671 30.3804 25.3671 30.4306C25.3671 30.488 25.3871 30.535 25.4272 30.5714C25.4672 30.6079 25.526 30.6261 25.6037 30.6261C25.6851 30.6261 25.7607 30.6064 25.8306 30.5669C25.9006 30.5275 25.9502 30.4794 25.9796 30.4226C26.0088 30.3658 26.0235 30.292 26.0235 30.2011V30.0846ZM25.3904 29.7007L24.6927 29.6273C24.719 29.5053 24.757 29.4093 24.8066 29.3393C24.8563 29.2693 24.9277 29.2087 25.0209 29.1572C25.0879 29.1202 25.1799 29.0916 25.297 29.0712C25.4143 29.0509 25.541 29.0407 25.6774 29.0407C25.8961 29.0407 26.0719 29.053 26.2046 29.0775C26.3374 29.102 26.4479 29.1531 26.5364 29.2309C26.5985 29.2846 26.6476 29.3609 26.6834 29.4595C26.7194 29.5582 26.7373 29.6523 26.7373 29.7419V30.5831C26.7373 30.6728 26.7429 30.7431 26.7543 30.7939C26.7656 30.8447 26.7904 30.9095 26.8287 30.9885H26.1436C26.1161 30.9395 26.0982 30.9021 26.0899 30.8763C26.0814 30.8507 26.0731 30.8103 26.0647 30.7553C25.969 30.8474 25.8739 30.913 25.7795 30.9526C25.6504 31.0052 25.5004 31.0315 25.3294 31.0315C25.1022 31.0315 24.9297 30.9789 24.812 30.8736C24.6941 30.7685 24.6353 30.6387 24.6353 30.4845C24.6353 30.3398 24.6778 30.2208 24.7626 30.1275C24.8476 30.0344 25.0041 29.965 25.2326 29.9195C25.5063 29.8646 25.6839 29.826 25.7652 29.8038C25.8465 29.7817 25.9326 29.7527 26.0235 29.7169C26.0235 29.6273 26.0049 29.5643 25.9679 29.5285C25.9308 29.4927 25.8656 29.4747 25.7724 29.4747C25.6527 29.4747 25.5631 29.494 25.5033 29.5322C25.4567 29.5621 25.4191 29.6182 25.3904 29.7007Z" fill="white"/>
<path d="M27.175 29.0838H27.8548V29.3941C27.9563 29.2673 28.0591 29.1767 28.1632 29.1223C28.2673 29.068 28.394 29.0407 28.5434 29.0407C28.7455 29.0407 28.9036 29.1008 29.0178 29.221C29.1319 29.3411 29.1891 29.5268 29.1891 29.7779V30.9885H28.4555V29.9411C28.4555 29.8215 28.4334 29.7369 28.3892 29.6872C28.345 29.6377 28.2828 29.6128 28.2027 29.6128C28.1142 29.6128 28.0425 29.6464 27.9874 29.7133C27.9325 29.7803 27.905 29.9004 27.905 30.0738V30.9885H27.175V29.0838Z" fill="white"/>
<path d="M29.625 28.3595H30.371V29.7166L30.9163 29.084H31.8149L31.1315 29.7512L31.8543 30.9887H31.0318L30.6461 30.2251L30.371 30.4937V30.9887H29.625V28.3595Z" fill="white"/>
<path d="M19.0574 20.6597H12.834V26.8819H19.0574V20.6597Z" fill="#221E1F"/>
<path d="M25.4667 14.2599V23.5928H24.1979C23.6503 18.9771 20.7477 16.0774 16.1322 15.5301V14.2599H25.4667ZM12.8412 10.9699V18.7123H14.4873C18.8166 18.7123 21.0134 20.9087 21.0134 25.2372V26.8828H28.7571V10.9699H12.8412Z" fill="white"/>
</svg>
