<svg width="42" height="42" viewBox="0 0 42 42" fill="none" xmlns="http://www.w3.org/2000/svg">
<path d="M21 42C32.598 42 42 32.5987 42 21.0019C42 9.40503 32.598 0.00378418 21 0.00378418C9.40202 0.00378418 0 9.40503 0 21.0019C0 32.5987 9.40202 42 21 42Z" fill="#5440D7"/>
<path fill-rule="evenodd" clip-rule="evenodd" d="M19.9156 22.6746C19.9209 22.6811 20.0162 22.8088 20.1727 22.8416C20.4754 22.9103 20.7714 22.8841 21.0026 22.8416C21.1743 22.8056 21.3132 22.6812 21.3634 22.5142C21.3813 22.452 21.4001 22.3898 21.4191 22.3276C21.4928 22.0821 21.3557 21.8202 21.1109 21.7416C20.744 21.627 20.3268 21.4928 19.9798 21.3815C19.3231 21.172 18.8968 20.537 18.9503 19.8495C18.9509 19.843 18.9516 19.8331 18.9522 19.8266C18.9892 19.3486 19.252 18.9198 19.659 18.6711C19.6776 18.6612 19.6965 18.6481 19.7143 18.6383C20.2745 18.2946 20.9705 18.2618 21.5567 18.5466C21.6776 18.6056 21.7825 18.6547 21.8406 18.6842C22.0911 18.8118 22.1928 19.1162 22.0675 19.365C21.9423 19.6171 21.6372 19.7186 21.3868 19.5942C21.3323 19.5647 21.234 19.5189 21.1166 19.4632C20.8375 19.3257 20.5083 19.3421 20.2434 19.5058L20.1882 19.5386C20.0591 19.6171 19.9757 19.7513 19.964 19.9052C19.9633 19.9117 19.9627 19.9216 19.962 19.9281C19.9451 20.1474 20.0803 20.3471 20.2886 20.4158C20.6356 20.5271 21.0528 20.6581 21.4197 20.7759C22.1915 21.0214 22.6236 21.8431 22.3913 22.6189C22.3723 22.6811 22.3535 22.7433 22.3356 22.8055C22.1775 23.3326 21.7396 23.7287 21.1947 23.8367C20.8444 23.9022 20.4027 23.9349 19.9509 23.8334C19.1647 23.6566 18.97 23.0445 18.97 23.0445C18.8737 22.7794 19.0091 22.488 19.2721 22.3931C19.5298 22.2981 19.8151 22.4258 19.9156 22.6746Z" fill="white"/>
<path fill-rule="evenodd" clip-rule="evenodd" d="M4.33584 20.1577C4.45696 18.9498 5.47668 18.007 6.71475 18.007C8.03432 18.007 9.10593 19.0774 9.10593 20.3966C9.10593 21.7192 8.03432 22.7896 6.71475 22.7896C6.20276 22.7896 5.72777 22.6292 5.33854 22.3543V23.4673C5.33854 23.7488 5.11102 23.9747 4.83113 23.9747C4.55092 23.9747 4.32373 23.7488 4.32373 23.4673V20.2657C4.32373 20.2297 4.32799 20.1937 4.33584 20.1577ZM6.71475 19.0218C7.47454 19.0218 8.09129 19.6372 8.09129 20.3966C8.09129 21.1594 7.47454 21.7748 6.71475 21.7748C5.95528 21.7748 5.33854 21.1594 5.33854 20.3966C5.33854 19.6372 5.95528 19.0218 6.71475 19.0218Z" fill="white"/>
<path fill-rule="evenodd" clip-rule="evenodd" d="M11.5571 18.3506H11.5654C11.6307 18.3506 11.6969 18.3637 11.7607 18.3899C11.8221 18.4161 11.8756 18.4521 11.9201 18.4979C11.9646 18.5437 12.0016 18.5961 12.0278 18.6583L13.9437 23.1398C14.0538 23.3951 13.9341 23.6963 13.6766 23.8043C13.4191 23.9156 13.1206 23.7945 13.0106 23.5392L11.5612 20.1478L10.1119 23.5392C10.0018 23.7945 9.70342 23.9156 9.44592 23.8043C9.18842 23.6963 9.06871 23.3951 9.1788 23.1398L11.0947 18.6583C11.1209 18.5961 11.1579 18.5437 11.2024 18.4979C11.2468 18.4521 11.3004 18.4161 11.3618 18.3899C11.4255 18.3637 11.4918 18.3506 11.5571 18.3506Z" fill="white"/>
<path fill-rule="evenodd" clip-rule="evenodd" d="M16.1296 20.8612L17.4767 18.7072C17.6251 18.4682 17.9384 18.3962 18.1759 18.5468C18.4133 18.6941 18.4856 19.0084 18.3372 19.2441L16.6158 22.0004V23.467C16.6158 23.7485 16.3884 23.9744 16.1084 23.9744C15.8283 23.9744 15.601 23.7485 15.601 23.467V21.9317L13.9221 19.2441C13.7737 19.0084 13.846 18.6941 14.0834 18.5468C14.3209 18.3962 14.6342 18.4682 14.7827 18.7072L16.1296 20.8612Z" fill="white"/>
<path fill-rule="evenodd" clip-rule="evenodd" d="M23.336 18.9367C23.3351 18.9268 23.3346 18.9138 23.3346 18.9007C23.3346 18.6191 23.5619 18.3933 23.842 18.3933H25.9738C26.2538 18.3933 26.4812 18.6191 26.4812 18.9007C26.4812 19.1789 26.2538 19.4081 25.9738 19.4081H24.3494V20.4589H25.9738C26.2538 20.4589 26.4812 20.688 26.4812 20.9663C26.4812 21.2478 26.2538 21.4737 25.9738 21.4737H24.3494V22.9599H25.9738C26.2538 22.9599 26.4812 23.189 26.4812 23.4673C26.4812 23.7488 26.2538 23.9747 25.9738 23.9747H23.7997L23.7965 23.9714H23.7711L23.7679 23.9681H23.7522L23.7491 23.9648H23.7367L23.7336 23.9616H23.7213L23.7183 23.9583H23.7092L23.7061 23.955H23.6971L23.6941 23.9517H23.6852L23.6823 23.9485H23.6764L23.6734 23.9452H23.6676L23.6647 23.9419H23.6589L23.656 23.9387H23.6503L23.6474 23.9353H23.6446L23.6417 23.9321H23.6361L23.6332 23.9288H23.6276L23.6249 23.9256H23.6221L23.6193 23.9223H23.6138L23.6111 23.919H23.6083L23.6056 23.9157H23.6029L23.6002 23.9125H23.5975L23.5948 23.9092H23.5895L23.5869 23.9059H23.5842L23.5816 23.9026H23.579L23.5763 23.8993H23.5738L23.5711 23.8961H23.5686L23.566 23.8928H23.5635L23.5609 23.8896H23.5584L23.5559 23.8862H23.5533L23.5508 23.883L23.5483 23.8797H23.5458L23.5434 23.8765H23.5409L23.5385 23.8732H23.5361L23.5336 23.8699H23.5312L23.5288 23.8666L23.5264 23.8634H23.524L23.5216 23.8601H23.5193L23.5146 23.8535H23.5123L23.51 23.8502H23.5077L23.5054 23.847L23.5032 23.8437H23.5009L23.4986 23.8405H23.4964L23.4942 23.8371L23.492 23.8339H23.4898L23.4876 23.8306L23.4854 23.8274H23.4832L23.479 23.8208H23.4769L23.4727 23.8142H23.4706L23.4665 23.8077H23.4644L23.4604 23.8011L23.4584 23.7979H23.4564L23.4524 23.7914H23.4505L23.4467 23.7848L23.4448 23.7815H23.4429L23.4391 23.775H23.4373L23.4354 23.7717L23.4318 23.7651H23.43L23.4265 23.7586L23.423 23.752H23.4213L23.4196 23.7488L23.4179 23.7455L23.4162 23.7423H23.4146L23.4113 23.7357L23.4081 23.7291H23.4065L23.4049 23.7259L23.4034 23.7226L23.4018 23.7193L23.4003 23.716H23.3988L23.3973 23.7128L23.3958 23.7095L23.3915 23.6997H23.3901L23.386 23.6898L23.3833 23.6833H23.382L23.3782 23.6735L23.3757 23.6669L23.3745 23.6637L23.3733 23.6604H23.3721L23.3709 23.6571L23.3698 23.6538L23.3676 23.6473L23.3643 23.6375H23.3633L23.3612 23.6309L23.3603 23.6277L23.3593 23.6244L23.3583 23.6211L23.3556 23.6113L23.3547 23.608L23.3538 23.6047H23.353L23.3514 23.5982L23.3498 23.5916L23.349 23.5884L23.3469 23.5786L23.3462 23.5753L23.3455 23.572L23.3437 23.5622L23.3431 23.5589L23.3425 23.5556H23.342L23.3409 23.5491L23.3404 23.5458L23.3395 23.5393L23.3387 23.5327L23.3383 23.5295L23.3375 23.5229L23.3369 23.5164L23.3363 23.5098L23.3356 23.5L23.3354 23.4967L23.3351 23.4902L23.3348 23.4836L23.3348 23.4804L23.3347 23.477L23.3346 23.4673V18.9759C23.3346 18.9628 23.3351 18.9498 23.336 18.9367Z" fill="white"/>
<path fill-rule="evenodd" clip-rule="evenodd" d="M31.1223 21.9254V18.9007C31.1223 18.6191 31.3497 18.3933 31.6297 18.3933C31.9098 18.3933 32.1371 18.6191 32.1371 18.9007V23.4673C32.1371 23.5491 32.1175 23.6277 32.0827 23.6964C32.048 23.7652 31.9972 23.8274 31.931 23.8765C31.8876 23.9092 31.8409 23.9321 31.7924 23.9485H31.7872L31.7865 23.9517H31.7843C31.7355 23.9648 31.6836 23.9747 31.6297 23.9747C31.5475 23.9747 31.4698 23.955 31.401 23.919C31.3322 23.8862 31.2703 23.8339 31.2214 23.7684L28.7666 20.4425V23.4673C28.7666 23.7488 28.5392 23.9747 28.2592 23.9747C27.9791 23.9747 27.7518 23.7488 27.7518 23.4673V18.9007C27.7518 18.8188 27.7714 18.7403 27.8062 18.6715C27.8408 18.6028 27.8917 18.5406 27.9579 18.4915C28.0012 18.4587 28.048 18.4358 28.0965 18.4194H28.0995L28.1016 18.4162H28.1046C28.1534 18.3998 28.2053 18.3933 28.2592 18.3933C28.3414 18.3933 28.4191 18.4129 28.4879 18.4456C28.5567 18.4816 28.6186 18.534 28.6675 18.5995L31.1223 21.9254Z" fill="white"/>
<path fill-rule="evenodd" clip-rule="evenodd" d="M33.2959 18.9727V18.9007C33.2959 18.6191 33.5233 18.3933 33.8033 18.3933C33.8711 18.3933 33.9359 18.4063 33.9951 18.4293C34.1644 18.4063 34.3385 18.3933 34.516 18.3933C36.2804 18.3933 37.6762 19.6601 37.6762 21.1692C37.6762 22.675 36.2804 23.9419 34.516 23.9419C34.338 23.9419 34.1606 23.9485 33.9866 23.9583H33.9354C33.8933 23.9681 33.849 23.9747 33.8033 23.9747C33.5233 23.9747 33.2959 23.7488 33.2959 23.4673V18.9923C33.2958 18.9857 33.2958 18.9792 33.2959 18.9727ZM34.3107 22.9304C34.379 22.9304 34.4475 22.9271 34.516 22.9271C35.6803 22.9271 36.6614 22.1644 36.6614 21.1692C36.6614 20.1708 35.6803 19.4081 34.516 19.4081C34.4468 19.4081 34.3783 19.4113 34.3107 19.4146V22.9304Z" fill="white"/>
</svg>
