<svg width="42" height="42" viewBox="0 0 42 42" fill="none" xmlns="http://www.w3.org/2000/svg">
<path d="M21 42C32.598 42 42 32.5987 42 21.0019C42 9.40503 32.598 0.00378418 21 0.00378418C9.40202 0.00378418 0 9.40503 0 21.0019C0 32.5987 9.40202 42 21 42Z" fill="#F4F4F4"/>
<path d="M32.467 14.9505C32.4633 17.7512 31.4658 20.3097 29.8069 22.2946C27.5068 24.4607 24.4088 25.7875 21.0005 25.7875C17.6247 25.7875 14.5531 24.486 12.2603 22.3563C10.5593 20.3564 9.53345 17.7658 9.53345 14.9356C9.53345 13.3709 9.84717 11.8774 10.4147 10.5192C9.20881 15.4353 11.0763 19.4442 15.3716 19.7011C21.3019 20.0542 24.0292 15.771 24.0292 15.771L24.3285 15.3112L24.2096 17.3952C24.1675 18.1376 24.735 18.7727 25.4776 18.8151C25.5033 18.8185 25.5312 18.8185 25.5569 18.8185C26.2658 18.8185 26.8584 18.2646 26.901 17.5476L27.1695 12.8294C27.192 12.4589 27.0595 12.0977 26.8051 11.8293C26.5508 11.5587 26.1952 11.4061 25.8248 11.4061H21.1364C20.3807 11.4061 19.7444 12.0248 19.7596 12.7805C19.7745 13.5131 20.3728 14.1025 21.1064 14.1025H23.1592C22.117 15.2887 19.6124 17.4546 15.6643 16.6296C10.9506 15.6473 12.1332 7.32854 18.091 4.14435C18.1135 4.13177 18.1412 4.11819 18.1728 4.10253C18.9557 3.71229 19.8158 3.49923 20.6904 3.47568C20.794 3.4726 20.8978 3.47153 21.0016 3.47153C27.3378 3.47153 32.4754 8.61269 32.467 14.9505Z" fill="#E71600"/>
<path d="M22.815 28.7151L21.0707 31.5117C20.8808 31.8187 20.7006 32.0281 20.5252 32.145C20.3449 32.2621 20.1306 32.3206 19.8724 32.3206C19.7358 32.3206 19.6044 32.3011 19.4729 32.2572C19.3412 32.2133 19.2342 32.1598 19.1609 32.0915L19.5119 31.5457C19.6288 31.653 19.7701 31.7065 19.9309 31.7065C20.0283 31.7065 20.1112 31.6823 20.1841 31.6335C20.2571 31.5849 20.3304 31.5021 20.4034 31.3852L20.4278 31.3413L19.8236 28.7151H20.5837L20.9733 30.4983L22.0648 28.7151H22.815ZM25.2952 29.5775H26.0163L25.7337 30.9807C25.5633 31.1122 25.3635 31.2145 25.1344 31.2875C24.9056 31.3607 24.6715 31.3948 24.4279 31.3948C24.087 31.3948 23.7896 31.3314 23.5364 31.2096C23.2831 31.0877 23.0883 30.9124 22.9516 30.6882C22.8106 30.4643 22.7423 30.2061 22.7423 29.9136C22.7423 29.5289 22.8301 29.178 23.0103 28.8663C23.1904 28.5543 23.4389 28.3109 23.7655 28.1306C24.0917 27.955 24.4621 27.8675 24.8861 27.8675C25.2123 27.8675 25.495 27.9161 25.7337 28.0184C25.9724 28.1208 26.1625 28.267 26.3085 28.4618L25.7436 28.9198C25.6313 28.7883 25.4999 28.6909 25.3586 28.6275C25.2173 28.5691 25.0466 28.5398 24.8518 28.5398C24.5936 28.5398 24.3647 28.5982 24.165 28.7104C23.9652 28.8273 23.814 28.9881 23.707 29.1878C23.5948 29.3876 23.5413 29.6165 23.5413 29.865C23.5413 30.1282 23.6291 30.3376 23.7995 30.4934C23.9699 30.6446 24.2136 30.7225 24.5302 30.7225C24.73 30.7225 24.9201 30.6835 25.0955 30.6007L25.2952 29.5775ZM19.5262 29.8308C19.5262 29.9526 19.5116 30.0843 19.4823 30.2303H17.4751C17.4995 30.5861 17.7284 30.7664 18.1523 30.7664C18.284 30.7664 18.4154 30.7469 18.5373 30.703C18.6591 30.6591 18.7614 30.6007 18.8539 30.5228L19.1706 31.0246C19.0243 31.1415 18.8588 31.2291 18.6687 31.2875C18.4788 31.3459 18.284 31.3753 18.0744 31.3753C17.8063 31.3753 17.5676 31.3265 17.3678 31.234C17.1634 31.1366 17.0075 31.0002 16.9002 30.8199C16.788 30.6397 16.7345 30.435 16.7345 30.2012C16.7345 29.9136 16.7979 29.6505 16.9293 29.4167C17.066 29.1878 17.2462 29.0076 17.48 28.8759C17.7138 28.7395 17.9819 28.6761 18.2791 28.6761C18.5323 28.6761 18.7516 28.725 18.9417 28.8174C19.1267 28.9102 19.2729 29.0465 19.3753 29.2219C19.4776 29.3972 19.5262 29.6019 19.5262 29.8308ZM11.4678 31.3753C11.2047 31.3753 10.9759 31.3265 10.7761 31.2291C10.5763 31.1316 10.4202 30.9953 10.3132 30.815C10.201 30.6397 10.1475 30.435 10.1475 30.2012C10.1475 29.9136 10.2158 29.6505 10.3522 29.4216C10.4885 29.1925 10.6787 29.0076 10.9174 28.8759C11.1561 28.7444 11.4289 28.6761 11.731 28.6761C11.9988 28.6761 12.2279 28.725 12.4277 28.8224C12.6274 28.9198 12.7784 29.0562 12.8906 29.2315C12.9976 29.4118 13.0514 29.6165 13.0514 29.8502C13.0514 30.1378 12.983 30.4009 12.8516 30.6298C12.715 30.8589 12.5251 31.0441 12.2864 31.1755C12.0427 31.307 11.7699 31.3753 11.4678 31.3753ZM31.5797 28.7151L31.0583 31.3363H30.3372L30.386 31.0781C30.1668 31.2779 29.8987 31.3753 29.5821 31.3753C29.3774 31.3753 29.1875 31.3265 29.0168 31.234C28.8464 31.1415 28.7101 31.0051 28.6077 30.8249C28.5054 30.6493 28.4519 30.4399 28.4519 30.2012C28.4519 29.9136 28.515 29.6505 28.6467 29.4167C28.7732 29.1878 28.9488 29.0076 29.168 28.8759C29.3873 28.7395 29.6309 28.6761 29.8987 28.6761C30.3032 28.6761 30.5858 28.8078 30.7513 29.071L30.8196 28.7151H31.5797ZM10.016 27.9259L9.33883 31.3363H8.59826L8.99777 29.3097L7.69713 30.9758H7.3462L6.64458 29.2902L6.23545 31.3363H5.49487L6.17701 27.9259H6.82017L7.67271 30.05L9.33883 27.9259H10.016ZM27.5216 29.0271C27.6336 28.9052 27.7749 28.8125 27.9308 28.759C28.0965 28.7055 28.2817 28.6761 28.5009 28.6761L28.3646 29.3777C28.2718 29.3728 28.2134 29.3681 28.189 29.3681C27.9601 29.3681 27.7749 29.4266 27.6336 29.5385C27.4972 29.6505 27.4047 29.8308 27.3559 30.0695L27.1026 31.3363H26.3426L26.8639 28.7151H27.585L27.5216 29.0271ZM15.3313 28.6761C15.6235 28.6761 15.8576 28.7541 16.028 28.9052C16.1986 29.0611 16.2862 29.2803 16.2862 29.5679C16.2862 29.6749 16.2766 29.7822 16.2521 29.8845L15.9599 31.3363H15.1998L15.4825 29.9331C15.497 29.8796 15.5019 29.8162 15.5019 29.7528C15.5019 29.6165 15.4627 29.5141 15.3897 29.4411C15.3167 29.3681 15.2045 29.3338 15.0536 29.3338C14.8588 29.3338 14.698 29.3876 14.5663 29.4996C14.4398 29.6115 14.352 29.7822 14.3081 30.0064L14.0452 31.3363H13.2851L13.8065 28.7151H14.5273L14.4689 28.9977C14.7029 28.7834 14.9902 28.6761 15.3313 28.6761ZM35.5701 28.6761C35.8577 28.6761 36.0818 28.7541 36.2522 28.9052C36.4229 29.0611 36.5055 29.2803 36.5055 29.5629C36.5055 29.6653 36.4959 29.7723 36.4715 29.8845L36.1842 31.3363H35.4241L35.7018 29.938C35.7163 29.8747 35.7213 29.8066 35.7213 29.7383C35.7213 29.6068 35.687 29.5045 35.6189 29.4362C35.5459 29.3681 35.4436 29.3338 35.3072 29.3338C34.9417 29.3338 34.7126 29.5531 34.6202 29.9916L34.3521 31.3363H33.592L33.87 29.938C33.8845 29.8747 33.8894 29.8066 33.8894 29.7432C33.8894 29.6115 33.8552 29.5094 33.7871 29.4362C33.7138 29.3681 33.6117 29.3338 33.4751 29.3338C33.1099 29.3338 32.8759 29.558 32.7834 30.0014L32.5202 31.3363H31.7602L32.2815 28.7151H33.0026L32.9442 28.9881C33.173 28.7785 33.446 28.6761 33.7676 28.6761C33.9479 28.6761 34.1087 28.7104 34.2547 28.7834C34.396 28.8613 34.4983 28.9637 34.5713 29.105C34.6981 28.9637 34.8443 28.8613 35.0147 28.7834C35.1854 28.7104 35.3703 28.6761 35.5701 28.6761ZM11.5167 30.7469C11.6627 30.7469 11.7944 30.7077 11.9113 30.6397C12.0282 30.5617 12.1206 30.4643 12.184 30.3326C12.2474 30.2012 12.2814 30.0549 12.2814 29.8845C12.2814 29.7043 12.2279 29.5629 12.1256 29.4606C12.0232 29.3583 11.877 29.3047 11.6871 29.3047C11.5362 29.3047 11.4045 29.3437 11.2876 29.4118C11.1707 29.485 11.0782 29.5874 11.0148 29.7188C10.9514 29.8502 10.9174 29.9965 10.9174 30.1671C10.9174 30.3474 10.9709 30.4885 11.0782 30.5908C11.1803 30.6932 11.3265 30.7469 11.5167 30.7469ZM29.8159 30.7469C29.9671 30.7469 30.0985 30.7077 30.2154 30.6397C30.3323 30.5617 30.425 30.4643 30.4884 30.3326C30.5515 30.2012 30.5858 30.0549 30.5858 29.8845C30.5858 29.7043 30.532 29.5629 30.4297 29.4606C30.3227 29.3583 30.1764 29.3047 29.9865 29.3047C29.8354 29.3047 29.7039 29.3437 29.587 29.4118C29.4701 29.485 29.3774 29.5874 29.314 29.7188C29.2509 29.8502 29.2166 29.9965 29.2166 30.1671C29.2166 30.3474 29.2704 30.4885 29.3774 30.5908C29.4797 30.6932 29.626 30.7469 29.8159 30.7469ZM18.2448 29.2463C18.0648 29.2463 17.9136 29.2949 17.7918 29.3876C17.6699 29.485 17.5824 29.6165 17.5286 29.7871H18.8295C18.8295 29.6165 18.776 29.485 18.6736 29.3876C18.5664 29.2949 18.4251 29.2463 18.2448 29.2463Z" fill="#030404"/>
</svg>
