<svg width="42" height="42" viewBox="0 0 42 42" fill="none" xmlns="http://www.w3.org/2000/svg">
<path d="M21 42.0093C32.598 42.0093 42 32.6072 42 21.0093C42 9.41139 32.598 0.00927734 21 0.00927734C9.40202 0.00927734 0 9.41139 0 21.0093C0 32.6072 9.40202 42.0093 21 42.0093Z" fill="#030404"/>
<path d="M11.0371 17.4926C11.8821 17.4926 12.5631 17.7448 13.0675 18.2367C13.5594 18.7412 13.8116 19.498 13.8116 20.4943V24.379H11.8442V20.797C11.8442 20.2547 11.7307 19.8511 11.5163 19.5863C11.2893 19.3214 10.9741 19.1953 10.5579 19.1953C10.0913 19.1953 9.72553 19.3466 9.46069 19.6367C9.19585 19.9394 9.05713 20.3808 9.05713 20.9736V24.379H7.08976V20.797C7.08976 19.725 6.66097 19.1953 5.8034 19.1953C5.3494 19.1953 4.98367 19.3466 4.71883 19.6367C4.45399 19.9394 4.31527 20.3808 4.31527 20.9736V24.379H2.3479V17.5935H4.22699V18.3755C4.47922 18.0854 4.7945 17.871 5.16023 17.7196C5.52596 17.5683 5.91691 17.4926 6.3583 17.4926C6.83753 17.4926 7.26632 17.5809 7.65727 17.7701C8.04822 17.9719 8.35089 18.2367 8.59051 18.6025C8.86796 18.2493 9.22108 17.9719 9.64986 17.7827C10.066 17.5935 10.5327 17.4926 11.0371 17.4926Z" fill="white"/>
<path d="M18.8813 24.4799C18.1624 24.4799 17.5319 24.3285 16.9517 24.0258C16.3968 23.7357 15.9428 23.3195 15.6275 22.7898C15.3123 22.2601 15.1483 21.6547 15.1483 20.9862C15.1483 20.3178 15.3123 19.7124 15.6275 19.1827C15.9428 18.6529 16.3968 18.2367 16.9517 17.9466C17.5319 17.6439 18.1624 17.4926 18.8813 17.4926C19.6001 17.4926 20.2307 17.6439 20.7982 17.9466C21.3657 18.2367 21.8071 18.6529 22.1224 19.1827C22.4377 19.7124 22.6016 20.3178 22.6016 20.9862C22.6016 21.6547 22.4377 22.2601 22.1224 22.7898C21.8071 23.3195 21.3657 23.7357 20.7982 24.0258C20.2307 24.3285 19.6001 24.4799 18.8813 24.4799ZM18.8813 22.8655C19.3857 22.8655 19.8019 22.6889 20.1298 22.3484C20.4451 22.0078 20.609 21.5538 20.609 20.9862C20.609 20.4187 20.4451 19.9646 20.1298 19.6115C19.8019 19.2709 19.3857 19.107 18.8813 19.107C18.3768 19.107 17.9606 19.2709 17.6327 19.6115C17.3049 19.9646 17.1409 20.4187 17.1409 20.9862C17.1409 21.5538 17.3049 22.0078 17.6327 22.3484C17.9606 22.6889 18.3768 22.8655 18.8813 22.8655Z" fill="white"/>
<path d="M28.0371 17.4926C28.8821 17.4926 29.5631 17.7448 30.0801 18.2493C30.5972 18.7538 30.8494 19.498 30.8494 20.4943V24.379H28.8821V20.797C28.8821 20.2547 28.7686 19.8511 28.529 19.5863C28.2893 19.3214 27.9488 19.1953 27.5074 19.1953C27.0156 19.1953 26.612 19.3466 26.322 19.6493C26.0319 19.9646 25.8806 20.4187 25.8806 21.0241V24.379H23.9132V17.5935H25.7923V18.3881C26.0571 18.098 26.3724 17.8836 26.7634 17.7196C27.1543 17.5683 27.5705 17.4926 28.0371 17.4926Z" fill="white"/>
<path d="M35.9316 24.4799C35.2128 24.4799 34.5822 24.3285 34.0021 24.0258C33.4472 23.7357 32.9932 23.3195 32.6779 22.7898C32.3626 22.2601 32.1987 21.6547 32.1987 20.9862C32.1987 20.3178 32.3626 19.7124 32.6779 19.1827C32.9932 18.6529 33.4472 18.2367 34.0021 17.9466C34.5822 17.6439 35.2128 17.4926 35.9316 17.4926C36.6505 17.4926 37.281 17.6439 37.8485 17.9466C38.4161 18.2367 38.8575 18.6529 39.1727 19.1827C39.488 19.7124 39.652 20.3178 39.652 20.9862C39.652 21.6547 39.488 22.2601 39.1727 22.7898C38.8575 23.3195 38.4161 23.7357 37.8485 24.0258C37.281 24.3285 36.6505 24.4799 35.9316 24.4799ZM35.9316 22.8655C36.4361 22.8655 36.8523 22.6889 37.1801 22.3484C37.4954 22.0078 37.6594 21.5538 37.6594 20.9862C37.6594 20.4187 37.4954 19.9646 37.1801 19.6115C36.8523 19.2709 36.4361 19.107 35.9316 19.107C35.4272 19.107 35.011 19.2709 34.6831 19.6115C34.3552 19.9646 34.1913 20.4187 34.1913 20.9862C34.1913 21.5538 34.3552 22.0078 34.6831 22.3484C35.011 22.6889 35.4272 22.8655 35.9316 22.8655Z" fill="white"/>
</svg>
